<?xml version="1.0" encoding="UTF-8"?>
<svg xmlns="http://www.w3.org/2000/svg" width="76" height="76" viewBox="0 0 76 76" fill="none">
  <g clip-path="url(#clip0_689_1218)">
    <path d="M14.1016 60.4141H21.5234V65.9805H14.1016V60.4141Z" fill="white"></path>
    <path d="M14.1016 50.3945H21.5234V55.9609H14.1016V50.3945Z" fill="white"></path>
    <path d="M14.1016 70.4336H21.5234V76H14.1016V70.4336Z" fill="white"></path>
    <path d="M25.9766 40.375H35.7734V76H25.9766V40.375Z" fill="white"></path>
    <path d="M0.148438 73.7734C0.148438 75.0031 1.14534 76 2.375 76H9.64844V40.375H0.148438V73.7734Z" fill="white"></path>
    <path d="M14.1016 40.375H21.5234V45.9414H14.1016V40.375Z" fill="white"></path>
    <path d="M0.148438 31.4688H35.7734V35.9219H0.148438V31.4688Z" fill="white"></path>
    <path d="M20.1873 13.7955V8.16406C20.1873 6.11785 21.852 4.45312 23.8982 4.45312H56.5545C58.6007 4.45312 60.2654 6.11785 60.2654 8.16406V31.655C55.4381 32.4652 51.4886 35.8634 49.8938 40.375H75.09C73.4952 35.8634 69.5459 32.4652 64.7184 31.655V8.16406C64.7184 3.6624 61.056 0 56.5543 0H23.8982C19.3966 0 15.7342 3.6624 15.7342 8.16406V13.7955C8.43505 14.7059 2.50705 20.031 0.709473 27.0156H35.2121C33.4144 20.031 27.4864 14.7059 20.1873 13.7955Z" fill="white"></path>
    <path d="M40.2266 49.2812H44.6797V76H40.2266V49.2812Z" fill="white"></path>
    <path d="M60.2656 62.6433C60.2656 63.8683 61.2645 64.8672 62.4922 64.8672C63.7193 64.8672 64.7177 63.8692 64.7188 62.6424C64.6997 61.9611 63.7739 60.0217 62.4922 57.8618C61.2098 60.0225 60.2837 61.9627 60.2656 62.6433Z" fill="white"></path>
    <path d="M49.1328 44.8281V76H73.625C74.8547 76 75.8516 75.0031 75.8516 73.7734V44.8281H49.1328ZM62.4922 69.3203C58.809 69.3203 55.8125 66.3238 55.8125 62.6406C55.8125 61.7236 56.0745 60.0528 58.3396 56.148C59.4838 54.1755 60.6125 52.5377 60.6602 52.4689C61.5453 51.1875 63.4389 51.1875 64.3242 52.4689C64.3717 52.5377 65.5006 54.1755 66.6447 56.148C68.9099 60.0528 69.1719 61.7236 69.1719 62.6406C69.1719 66.3238 66.1754 69.3203 62.4922 69.3203Z" fill="white"></path>
  </g>
  <defs>
    <clipPath id="clip0_689_1218">
      <rect width="76" height="76" fill="white"></rect>
    </clipPath>
  </defs>
</svg>
