<?xml version="1.0" encoding="UTF-8"?>
<svg xmlns="http://www.w3.org/2000/svg" width="76" height="76" viewBox="0 0 76 76" fill="none">
  <g clip-path="url(#clip0_689_1234)">
    <path d="M38 18.2578C40.4594 18.2578 42.4531 16.2641 42.4531 13.8047C42.4531 11.3453 40.4594 9.35156 38 9.35156C35.5406 9.35156 33.5469 11.3453 33.5469 13.8047C33.5469 16.2641 35.5406 18.2578 38 18.2578Z" fill="white"></path>
    <path d="M4.45312 8.90625C6.91252 8.90625 8.90625 6.91252 8.90625 4.45312C8.90625 1.99373 6.91252 0 4.45312 0C1.99373 0 0 1.99373 0 4.45312C0 6.91252 1.99373 8.90625 4.45312 8.90625Z" fill="white"></path>
    <path d="M71.5469 47.7969C69.0874 47.7969 67.0938 49.7905 67.0938 52.25V64.8672C67.0938 66.0968 68.0907 67.0938 69.3203 67.0938H73.7734C75.0031 67.0938 76 66.0968 76 64.8672V52.25C76 49.7905 74.0063 47.7969 71.5469 47.7969Z" fill="white"></path>
    <path d="M73.7734 0H64.125V14.4149C64.125 14.6981 64.179 14.9788 64.2843 15.2419L66.5338 20.866C66.872 21.7114 67.6908 22.2656 68.6011 22.2656H73.7734C75.0031 22.2656 76 21.2687 76 20.0391V2.22656C76 0.996906 75.0031 0 73.7734 0Z" fill="white"></path>
    <path d="M73.7734 43.6256V26.7188H69.3203V43.6256C70.0322 43.4417 70.7783 43.3438 71.5469 43.3438C72.3155 43.3438 73.0615 43.4417 73.7734 43.6256Z" fill="white"></path>
    <path d="M2.22656 13.0774V49.5629C2.93847 49.3791 3.68452 49.2812 4.45312 49.2812C5.22173 49.2812 5.96778 49.3791 6.67969 49.563V13.0774C5.96778 13.2613 5.22173 13.3593 4.45312 13.3593C3.68452 13.3593 2.93847 13.2613 2.22656 13.0774Z" fill="white"></path>
    <path d="M30.5669 8.90625C32.1622 6.49384 34.8976 4.89844 37.9999 4.89844C41.1023 4.89844 43.8377 6.49384 45.433 8.90625H59.6718V0H12.1611C12.9216 1.31115 13.3593 2.83145 13.3593 4.45312C13.3593 6.0748 12.9216 7.5951 12.1611 8.90625H30.5669Z" fill="white"></path>
    <path d="M73.7734 71.5468H53.3248L47.6311 25.9972C47.492 24.8829 46.5447 24.0468 45.4219 24.0468H40.2266V22.429C39.5147 22.6129 38.7686 22.7108 38 22.7108C37.2314 22.7108 36.4853 22.6129 35.7734 22.429V24.0468H30.5781C29.4552 24.0468 28.508 24.8829 28.3688 25.9972L22.675 71.5468H8.90625V58.1874C8.90625 55.7279 6.91259 53.7343 4.45312 53.7343C1.99381 53.7343 0 55.7279 0 58.1874V73.7733C0 75.003 0.996906 75.9999 2.22656 75.9999H73.7734C75.0031 75.9999 76 75.003 76 73.7733C76 72.5437 75.0031 71.5468 73.7734 71.5468ZM45.1413 41.98L40.7832 36.1692L43.8961 32.0188L45.1413 41.98ZM32.0625 47.7968L38 39.8802L43.9375 47.7968H32.0625ZM43.0153 52.2499L38 57.2652L32.9847 52.2499H43.0153ZM40.9688 28.4999L38 32.4583L35.0312 28.4999H40.9688ZM32.1039 32.0186L35.2168 36.1692L30.8587 41.9801L32.1039 32.0186ZM29.2541 54.8168L34.8512 60.414L27.6549 67.6102L29.2541 54.8168ZM30.016 71.5468L38 63.5628L45.984 71.5468H30.016ZM41.1488 60.414L46.7459 54.8168L48.3452 67.6104L41.1488 60.414Z" fill="white"></path>
  </g>
  <defs>
    <clipPath id="clip0_689_1234">
      <rect width="76" height="76" fill="white"></rect>
    </clipPath>
  </defs>
</svg>
