<?xml version="1.0" encoding="UTF-8"?>
<svg xmlns="http://www.w3.org/2000/svg" width="76" height="76" viewBox="0 0 76 76" fill="none">
  <g clip-path="url(#clip0_689_1247)">
    <path d="M62.4922 4.45312C62.4922 1.99366 60.4985 0 58.0391 0H17.9609C15.5015 0 13.5078 1.99366 13.5078 4.45312C13.5078 6.91259 15.5015 8.90625 17.9609 8.90625H58.0391C60.4985 8.90625 62.4922 6.91259 62.4922 4.45312Z" fill="white"></path>
    <path d="M56.9258 13.3594H51.3594L41.3398 26.7188H46.9062L56.9258 13.3594Z" fill="white"></path>
    <path d="M34.6602 26.7188L24.6406 13.3594H19.0742L29.0938 26.7188H34.6602Z" fill="white"></path>
    <path d="M35.7734 13.3594H40.2266V26.7188H35.7734V13.3594Z" fill="white"></path>
    <path d="M31.3203 31.1719H44.6797V37.1094H31.3203V31.1719Z" fill="white"></path>
    <path d="M14.25 54.4766V73.7734C14.25 75.0031 15.2469 76 16.4766 76H59.5234C60.7531 76 61.75 75.0031 61.75 73.7734V54.4766C61.75 53.2469 60.7531 52.25 59.5234 52.25H16.4766C15.2469 52.25 14.25 53.2469 14.25 54.4766Z" fill="white"></path>
    <path d="M49.1328 47.7969V43.7891C49.1328 42.5594 48.1359 41.5625 46.9062 41.5625H29.0938C27.8641 41.5625 26.8672 42.5594 26.8672 43.7891V47.7969H49.1328Z" fill="white"></path>
    <path d="M2.22656 55.2188C0.996906 55.2188 0 56.2157 0 57.4453V70.8047C0 72.0343 0.996906 73.0312 2.22656 73.0312H9.79688V55.2188H2.22656Z" fill="white"></path>
    <path d="M73.7734 55.2188H66.2031V73.0312H73.7734C75.0031 73.0312 76 72.0343 76 70.8047V57.4453C76 56.2157 75.0031 55.2188 73.7734 55.2188Z" fill="white"></path>
  </g>
  <defs>
    <clipPath id="clip0_689_1247">
      <rect width="76" height="76" fill="white"></rect>
    </clipPath>
  </defs>
</svg>
