<?xml version="1.0" encoding="UTF-8"?>
<svg xmlns="http://www.w3.org/2000/svg" width="76" height="76" viewBox="0 0 76 76" fill="none">
  <g clip-path="url(#clip0_689_1263)">
    <path d="M11.2812 61.8984H15.7344V76H11.2812V61.8984Z" fill="white"></path>
    <path d="M23.9366 26.6287L1.67096 34.0506C0.761633 34.3535 0.148438 35.2044 0.148438 36.1628V73.7735C0.148438 75.0031 1.14534 76 2.375 76H6.82812V59.6719C6.82812 58.4422 7.82503 57.4453 9.05469 57.4453H17.9609C19.1906 57.4453 20.1875 58.4422 20.1875 59.6719V76H26.8672V28.7409C26.8672 27.2212 25.3784 26.148 23.9366 26.6287ZM17.9609 52.9922H9.05469C7.82503 52.9922 6.82812 51.9953 6.82812 50.7657C6.82812 49.536 7.82503 48.5391 9.05469 48.5391H17.9609C19.1906 48.5391 20.1875 49.536 20.1875 50.7657C20.1875 51.9953 19.1906 52.9922 17.9609 52.9922ZM17.9609 44.086H9.05469C7.82503 44.086 6.82812 43.0891 6.82812 41.8594C6.82812 40.6297 7.82503 39.6328 9.05469 39.6328H17.9609C19.1906 39.6328 20.1875 40.6297 20.1875 41.8594C20.1875 43.0891 19.1906 44.086 17.9609 44.086Z" fill="white"></path>
    <path d="M18.6522 11.4297H6.85063L6.49438 15.8828H19.0084L18.6522 11.4297Z" fill="white"></path>
    <path d="M17.9018 2.04903C17.8092 0.891813 16.8431 0 15.6822 0H9.82072C8.65994 0 7.69391 0.891813 7.60128 2.04903L7.20703 6.97656H18.2961L17.9018 2.04903Z" fill="white"></path>
    <path d="M73.625 40.3749H68.5241L57.2788 30.5352C55.8391 29.2755 53.5859 30.298 53.5859 32.2109V40.3749H50.7116L39.4663 30.5352C38.0266 29.2755 35.7734 30.298 35.7734 32.2109V40.3749H31.3203V75.9999H73.625C74.8547 75.9999 75.8516 75.003 75.8516 73.7734V42.6015C75.8516 41.3718 74.8547 40.3749 73.625 40.3749ZM43.1953 65.6093H40.2266C38.9969 65.6093 38 64.6124 38 63.3828C38 62.1531 38.9969 61.1562 40.2266 61.1562H43.1953C44.425 61.1562 45.4219 62.1531 45.4219 63.3828C45.4219 64.6124 44.425 65.6093 43.1953 65.6093ZM43.1953 55.2187H40.2266C38.9969 55.2187 38 54.2218 38 52.9921C38 51.7625 38.9969 50.7656 40.2266 50.7656H43.1953C44.425 50.7656 45.4219 51.7625 45.4219 52.9921C45.4219 54.2218 44.425 55.2187 43.1953 55.2187ZM55.0703 65.6093H52.1016C50.8719 65.6093 49.875 64.6124 49.875 63.3828C49.875 62.1531 50.8719 61.1562 52.1016 61.1562H55.0703C56.3 61.1562 57.2969 62.1531 57.2969 63.3828C57.2969 64.6124 56.3 65.6093 55.0703 65.6093ZM55.0703 55.2187H52.1016C50.8719 55.2187 49.875 54.2218 49.875 52.9921C49.875 51.7625 50.8719 50.7656 52.1016 50.7656H55.0703C56.3 50.7656 57.2969 51.7625 57.2969 52.9921C57.2969 54.2218 56.3 55.2187 55.0703 55.2187ZM66.9453 65.6093H63.9766C62.7469 65.6093 61.75 64.6124 61.75 63.3828C61.75 62.1531 62.7469 61.1562 63.9766 61.1562H66.9453C68.175 61.1562 69.1719 62.1531 69.1719 63.3828C69.1719 64.6124 68.175 65.6093 66.9453 65.6093ZM66.9453 55.2187H63.9766C62.7469 55.2187 61.75 54.2218 61.75 52.9921C61.75 51.7625 62.7469 50.7656 63.9766 50.7656H66.9453C68.175 50.7656 69.1719 51.7625 69.1719 52.9921C69.1719 54.2218 68.175 55.2187 66.9453 55.2187Z" fill="white"></path>
    <path d="M19.3647 20.3359H6.13818L5.51904 28.0737L19.608 23.3774L19.3647 20.3359Z" fill="white"></path>
  </g>
  <defs>
    <clipPath id="clip0_689_1263">
      <rect width="76" height="76" fill="white"></rect>
    </clipPath>
  </defs>
</svg>
