<svg width="48" height="48" viewBox="0 0 48 48" fill="none" xmlns="http://www.w3.org/2000/svg">
<g clip-path="url(#clip0_689_1057)">
<rect x="0.5" y="0.5" width="47" height="47" rx="23.5" fill="#010510" stroke="url(#paint0_linear_689_1057)"/>
<g filter="url(#filter0_f_689_1057)">
<circle cx="33.4711" cy="-0.129032" r="19.871" fill="white" fill-opacity="0.4"/>
</g>
<path d="M27.6892 19.2864H19.6502C19.3291 19.2864 19.0688 19.5466 19.0688 19.8677V27.9067C19.0688 28.2278 19.3291 28.488 19.6502 28.488H27.6892C28.0102 28.488 28.2705 28.2278 28.2705 27.9067V19.8677C28.2705 19.5466 28.0102 19.2864 27.6892 19.2864Z" fill="url(#paint1_linear_689_1057)"/>
<path d="M22.0917 18.8261C22.0253 18.8262 21.9595 18.8131 21.8982 18.7877C21.8368 18.7623 21.7811 18.7251 21.7341 18.6782C21.6872 18.6312 21.65 18.5755 21.6246 18.5141C21.5992 18.4528 21.5861 18.387 21.5862 18.3207V14.9911C21.5862 14.857 21.6394 14.7284 21.7342 14.6336C21.829 14.5389 21.9576 14.4856 22.0917 14.4856C22.2257 14.4856 22.3543 14.5389 22.4491 14.6336C22.5439 14.7284 22.5971 14.857 22.5971 14.9911V18.3218C22.5969 18.4557 22.5435 18.584 22.4487 18.6786C22.354 18.7731 22.2255 18.8262 22.0917 18.8261Z" fill="url(#paint2_linear_689_1057)"/>
<path d="M23.6716 18.826C23.5379 18.8257 23.4097 18.7725 23.3151 18.678C23.2206 18.5835 23.1673 18.4554 23.167 18.3217V16.0283C23.1702 15.8963 23.2248 15.7708 23.3193 15.6785C23.4138 15.5863 23.5406 15.5347 23.6726 15.5347C23.8046 15.5347 23.9314 15.5863 24.0259 15.6785C24.1204 15.7708 24.1751 15.8963 24.1782 16.0283V18.3217C24.1781 18.388 24.1648 18.4537 24.1393 18.515C24.1138 18.5763 24.0764 18.6319 24.0294 18.6787C23.9823 18.7256 23.9265 18.7627 23.8651 18.7879C23.8037 18.8132 23.738 18.8261 23.6716 18.826Z" fill="url(#paint3_linear_689_1057)"/>
<path d="M25.0831 18.8261C25.0167 18.8262 24.951 18.8131 24.8896 18.7877C24.8283 18.7623 24.7725 18.7251 24.7256 18.6782C24.6787 18.6312 24.6414 18.5755 24.616 18.5141C24.5906 18.4528 24.5776 18.387 24.5776 18.3207V14.5533C24.5776 14.4193 24.6309 14.2907 24.7257 14.1959C24.8205 14.1011 24.949 14.0479 25.0831 14.0479C25.2172 14.0479 25.3457 14.1011 25.4405 14.1959C25.5353 14.2907 25.5886 14.4193 25.5886 14.5533V18.3218C25.5883 18.4557 25.535 18.584 25.4402 18.6786C25.3454 18.7731 25.217 18.8262 25.0831 18.8261Z" fill="url(#paint4_linear_689_1057)"/>
<path d="M25.1015 33.1849C24.9673 33.1849 24.8387 33.1316 24.7438 33.0368C24.649 32.942 24.5957 32.8133 24.5957 32.6792V29.3481C24.5989 29.2161 24.6535 29.0906 24.748 28.9984C24.8425 28.9061 24.9693 28.8545 25.1013 28.8545C25.2334 28.8545 25.3602 28.9061 25.4546 28.9984C25.5491 29.0906 25.6038 29.2161 25.6069 29.3481V32.678C25.6071 32.7445 25.5941 32.8104 25.5688 32.8718C25.5435 32.9333 25.5063 32.9892 25.4593 33.0363C25.4124 33.0834 25.3566 33.1207 25.2952 33.1462C25.2338 33.1717 25.168 33.1849 25.1015 33.1849Z" fill="url(#paint5_linear_689_1057)"/>
<path d="M23.6415 32.1461C23.5074 32.1461 23.3788 32.0928 23.284 31.998C23.1892 31.9032 23.136 31.7747 23.136 31.6406V29.3481C23.1392 29.2161 23.1938 29.0906 23.2883 28.9984C23.3828 28.9061 23.5096 28.8545 23.6416 28.8545C23.7736 28.8545 23.9004 28.9061 23.9949 28.9984C24.0894 29.0906 24.1441 29.2161 24.1472 29.3481V31.6415C24.147 31.7755 24.0936 31.9038 23.9988 31.9985C23.9039 32.0931 23.7754 32.1462 23.6415 32.1461Z" fill="url(#paint6_linear_689_1057)"/>
<path d="M20.5268 32.8722C20.4604 32.8722 20.3946 32.8592 20.3332 32.8338C20.2719 32.8084 20.2161 32.7712 20.1691 32.7242C20.1222 32.6773 20.0849 32.6216 20.0595 32.5602C20.0341 32.4989 20.021 32.4331 20.021 32.3667V29.3481C20.0242 29.2161 20.0788 29.0906 20.1733 28.9984C20.2678 28.9061 20.3946 28.8545 20.5266 28.8545C20.6586 28.8545 20.7854 28.9061 20.8799 28.9984C20.9744 29.0906 21.0291 29.2161 21.0322 29.3481V32.3667C21.0322 32.5008 20.979 32.6293 20.8842 32.7241C20.7894 32.8189 20.6608 32.8722 20.5268 32.8722Z" fill="url(#paint7_linear_689_1057)"/>
<path d="M18.0313 21.3207H16.3745C16.2425 21.3175 16.117 21.2629 16.0247 21.1684C15.9325 21.0739 15.8809 20.9471 15.8809 20.8151C15.8809 20.6831 15.9325 20.5562 16.0247 20.4618C16.117 20.3673 16.2425 20.3126 16.3745 20.3095H18.0313C18.0987 20.3079 18.1658 20.3197 18.2285 20.3444C18.2913 20.3691 18.3485 20.4061 18.3967 20.4532C18.445 20.5003 18.4833 20.5566 18.5095 20.6187C18.5357 20.6809 18.5492 20.7476 18.5492 20.8151C18.5492 20.8825 18.5357 20.9493 18.5095 21.0114C18.4833 21.0736 18.445 21.1299 18.3967 21.177C18.3485 21.2241 18.2913 21.2611 18.2285 21.2858C18.1658 21.3104 18.0987 21.3223 18.0313 21.3207Z" fill="url(#paint8_linear_689_1057)"/>
<path d="M18.0315 27.3148H15.2469C15.1795 27.3165 15.1124 27.3046 15.0497 27.2799C14.9869 27.2552 14.9297 27.2182 14.8815 27.1711C14.8332 27.124 14.7949 27.0677 14.7687 27.0056C14.7425 26.9434 14.729 26.8767 14.729 26.8092C14.729 26.7418 14.7425 26.675 14.7687 26.6129C14.7949 26.5507 14.8332 26.4945 14.8815 26.4473C14.9297 26.4002 14.9869 26.3632 15.0497 26.3386C15.1124 26.3139 15.1795 26.302 15.2469 26.3036H18.0315C18.0989 26.302 18.166 26.3139 18.2287 26.3386C18.2915 26.3632 18.3487 26.4002 18.3969 26.4473C18.4452 26.4945 18.4835 26.5507 18.5097 26.6129C18.5359 26.675 18.5494 26.7418 18.5494 26.8092C18.5494 26.8767 18.5359 26.9434 18.5097 27.0056C18.4835 27.0677 18.4452 27.124 18.3969 27.1711C18.3487 27.2182 18.2915 27.2552 18.2287 27.2799C18.166 27.3046 18.0989 27.3165 18.0315 27.3148Z" fill="url(#paint9_linear_689_1057)"/>
<path d="M18.0312 24.3925H14.6642C14.5301 24.3925 14.4015 24.3393 14.3067 24.2445C14.2119 24.1497 14.1587 24.0211 14.1587 23.8871C14.1587 23.753 14.2119 23.6244 14.3067 23.5296C14.4015 23.4348 14.5301 23.3816 14.6642 23.3816H18.0312C18.1653 23.3816 18.2939 23.4348 18.3887 23.5296C18.4835 23.6244 18.5367 23.753 18.5367 23.8871C18.5367 24.0211 18.4835 24.1497 18.3887 24.2445C18.2939 24.3393 18.1653 24.3925 18.0312 24.3925Z" fill="url(#paint10_linear_689_1057)"/>
<path d="M30.7174 27.0114H29.0606C28.9266 27.0114 28.798 26.9582 28.7032 26.8634C28.6084 26.7686 28.5552 26.64 28.5552 26.506C28.5552 26.3719 28.6084 26.2433 28.7032 26.1485C28.798 26.0537 28.9266 26.0005 29.0606 26.0005H30.7174C30.8515 26.0005 30.9801 26.0537 31.0749 26.1485C31.1697 26.2433 31.2229 26.3719 31.2229 26.506C31.2229 26.64 31.1697 26.7686 31.0749 26.8634C30.9801 26.9582 30.8515 27.0114 30.7174 27.0114Z" fill="url(#paint11_linear_689_1057)"/>
<path d="M31.8458 22.4492H29.0609C28.9268 22.4492 28.7983 22.3959 28.7035 22.3011C28.6087 22.2063 28.5554 22.0778 28.5554 21.9437C28.5554 21.8096 28.6087 21.6811 28.7035 21.5863C28.7983 21.4915 28.9268 21.4382 29.0609 21.4382H31.8458C31.9122 21.4382 31.9779 21.4513 32.0392 21.4767C32.1005 21.5021 32.1563 21.5393 32.2032 21.5863C32.2501 21.6332 32.2874 21.6889 32.3128 21.7503C32.3382 21.8116 32.3512 21.8773 32.3512 21.9437C32.3512 22.0101 32.3382 22.0758 32.3128 22.1371C32.2874 22.1985 32.2501 22.2542 32.2032 22.3011C32.1563 22.3481 32.1005 22.3853 32.0392 22.4107C31.9779 22.4361 31.9122 22.4492 31.8458 22.4492Z" fill="url(#paint12_linear_689_1057)"/>
<path d="M32.4283 21.0173H29.0609C28.9268 21.0173 28.7983 20.964 28.7035 20.8692C28.6087 20.7744 28.5554 20.6459 28.5554 20.5118C28.5554 20.3778 28.6087 20.2492 28.7035 20.1544C28.7983 20.0596 28.9268 20.0063 29.0609 20.0063H32.4283C32.5623 20.0063 32.6909 20.0596 32.7857 20.1544C32.8805 20.2492 32.9337 20.3778 32.9337 20.5118C32.9337 20.6459 32.8805 20.7744 32.7857 20.8692C32.6909 20.964 32.5623 21.0173 32.4283 21.0173Z" fill="url(#paint13_linear_689_1057)"/>
<path d="M18.0314 21.863H15.6927L14.1746 20.3449C14.2549 20.1403 14.2676 19.9153 14.2107 19.703C14.1538 19.4907 14.0304 19.3021 13.8586 19.1651C13.6867 19.028 13.4755 18.9496 13.2559 18.9414C13.0362 18.9332 12.8197 18.9955 12.6381 19.1194C12.4564 19.2432 12.3193 19.4219 12.2467 19.6294C12.1741 19.8369 12.1699 20.0622 12.2347 20.2722C12.2995 20.4822 12.4298 20.666 12.6067 20.7965C12.7836 20.927 12.9976 20.9975 13.2174 20.9974C13.2731 20.9973 13.3287 20.9928 13.3837 20.9838L15.1259 22.726C15.2208 22.8208 15.3494 22.874 15.4835 22.874H18.0314C18.1655 22.874 18.2941 22.8207 18.3889 22.7259C18.4837 22.6311 18.5369 22.5026 18.5369 22.3685C18.5369 22.2345 18.4837 22.1059 18.3889 22.0111C18.2941 21.9163 18.1655 21.863 18.0314 21.863Z" fill="url(#paint14_linear_689_1057)"/>
<path d="M18.0313 24.872H14.4471C14.3807 24.872 14.3149 24.8851 14.2536 24.9106C14.1922 24.936 14.1365 24.9733 14.0896 25.0203L13.2466 25.8632C13.0247 25.815 12.793 25.8416 12.5878 25.9389C12.3826 26.0362 12.2153 26.1988 12.1122 26.4011C12.009 26.6035 11.9758 26.8343 12.0176 27.0575C12.0594 27.2808 12.174 27.4839 12.3434 27.6352C12.5128 27.7865 12.7275 27.8774 12.954 27.8938C13.1806 27.9103 13.4062 27.8512 13.5956 27.7259C13.7851 27.6007 13.9277 27.4162 14.0013 27.2013C14.0749 26.9864 14.0753 26.7532 14.0024 26.5381L14.6575 25.883H18.0313C18.0987 25.8846 18.1658 25.8727 18.2285 25.848C18.2913 25.8233 18.3485 25.7863 18.3967 25.7392C18.445 25.6921 18.4833 25.6358 18.5095 25.5737C18.5357 25.5115 18.5492 25.4448 18.5492 25.3773C18.5492 25.3099 18.5357 25.2431 18.5095 25.181C18.4833 25.1189 18.445 25.0626 18.3967 25.0155C18.3485 24.9683 18.2913 24.9314 18.2285 24.9067C18.1658 24.882 18.0987 24.8701 18.0313 24.8717V24.872Z" fill="url(#paint15_linear_689_1057)"/>
<path d="M20.955 16.1076L19.5307 14.6834C19.5967 14.4661 19.589 14.2331 19.5086 14.0207C19.4282 13.8083 19.2798 13.6285 19.0864 13.5094C18.8931 13.3903 18.6657 13.3386 18.4399 13.3623C18.214 13.3861 18.0024 13.4839 17.8381 13.6406C17.6737 13.7974 17.5659 14.0041 17.5314 14.2285C17.497 14.453 17.5378 14.6825 17.6476 14.8813C17.7574 15.0801 17.9299 15.237 18.1382 15.3274C18.3465 15.4177 18.5789 15.4366 18.7991 15.381L20.0926 16.6744V18.3214C20.0957 18.4534 20.1504 18.5789 20.2449 18.6711C20.3393 18.7634 20.4662 18.815 20.5982 18.815C20.7302 18.815 20.857 18.7634 20.9515 18.6711C21.046 18.5789 21.1006 18.4534 21.1038 18.3214V16.4652C21.1036 16.331 21.05 16.2024 20.955 16.1076Z" fill="url(#paint16_linear_689_1057)"/>
<path d="M28.4862 12C28.3181 12 28.1526 12.0413 28.0042 12.1201C27.8557 12.1989 27.7289 12.3129 27.6346 12.452C27.5404 12.5912 27.4818 12.7514 27.4637 12.9185C27.4457 13.0856 27.469 13.2546 27.5314 13.4106L26.3062 14.6334C26.2114 14.7283 26.158 14.8569 26.158 14.991V18.3217C26.1611 18.4537 26.2158 18.5792 26.3103 18.6715C26.4047 18.7637 26.5315 18.8154 26.6636 18.8154C26.7956 18.8154 26.9224 18.7637 27.0169 18.6715C27.1114 18.5792 27.166 18.4537 27.1692 18.3217V15.2005L28.3252 14.0446C28.3777 14.0526 28.4307 14.0567 28.4839 14.0568C28.7566 14.0568 29.0182 13.9484 29.2111 13.7556C29.4039 13.5627 29.5123 13.3011 29.5123 13.0284C29.5123 12.7556 29.4039 12.4941 29.2111 12.3012C29.0182 12.1083 28.7566 12 28.4839 12H28.4862Z" fill="url(#paint17_linear_689_1057)"/>
<path d="M34.1221 20.9153C33.9624 20.9151 33.8049 20.9522 33.662 21.0235C33.5191 21.0948 33.3948 21.1984 33.2989 21.3261C33.203 21.4538 33.1382 21.602 33.1095 21.7591C33.0809 21.9162 33.0892 22.0778 33.1338 22.2311L32.4362 22.9287H29.061C28.929 22.9319 28.8035 22.9866 28.7113 23.081C28.619 23.1755 28.5674 23.3023 28.5674 23.4343C28.5674 23.5664 28.619 23.6932 28.7113 23.7877C28.8035 23.8821 28.929 23.9368 29.061 23.94H32.6467C32.7808 23.94 32.9094 23.8868 33.0042 23.792L33.8582 22.938C33.9996 22.9755 34.1473 22.9824 34.2915 22.9582C34.4357 22.934 34.5732 22.8794 34.6946 22.7979C34.816 22.7164 34.9187 22.61 34.9957 22.4857C35.0727 22.3613 35.1224 22.222 35.1413 22.077C35.1602 21.932 35.148 21.7846 35.1054 21.6447C35.0629 21.5048 34.991 21.3756 34.8945 21.2657C34.7981 21.1557 34.6793 21.0677 34.5461 21.0073C34.4129 20.9469 34.2684 20.9157 34.1221 20.9156V20.9153Z" fill="url(#paint18_linear_689_1057)"/>
<path d="M33.9035 26.1573C33.7938 26.1571 33.6848 26.1746 33.5806 26.209L31.9668 24.5953C31.872 24.5004 31.7434 24.4471 31.6093 24.447H29.061C28.929 24.4502 28.8035 24.5048 28.7113 24.5993C28.619 24.6938 28.5674 24.8206 28.5674 24.9526C28.5674 25.0847 28.619 25.2115 28.7113 25.306C28.8035 25.4004 28.929 25.4551 29.061 25.4583H31.3997L32.9004 26.959C32.8535 27.1669 32.8723 27.3842 32.9543 27.5809C33.0363 27.7777 33.1774 27.9441 33.358 28.0571C33.5387 28.1702 33.75 28.2243 33.9628 28.2121C34.1756 28.1998 34.3793 28.1217 34.5458 27.9886C34.7122 27.8555 34.8332 27.674 34.892 27.4692C34.9508 27.2643 34.9446 27.0462 34.874 26.8451C34.8035 26.644 34.6722 26.4698 34.4984 26.3465C34.3245 26.2232 34.1167 26.157 33.9035 26.157V26.1573Z" fill="url(#paint19_linear_689_1057)"/>
<path d="M28.5231 32.0865C28.4248 32.0864 28.3269 32.1005 28.2325 32.1284L27.0989 30.9948V29.3481C27.0957 29.2161 27.0411 29.0906 26.9466 28.9984C26.8521 28.9061 26.7253 28.8545 26.5933 28.8545C26.4612 28.8545 26.3344 28.9061 26.2399 28.9984C26.1455 29.0906 26.0908 29.2161 26.0876 29.3481V31.2046C26.0876 31.271 26.1006 31.3368 26.126 31.3981C26.1514 31.4595 26.1887 31.5152 26.2356 31.5621L27.5279 32.8542C27.4733 33.0618 27.485 33.2812 27.5614 33.4819C27.6379 33.6825 27.7751 33.8541 27.954 33.9728C28.1329 34.0914 28.3445 34.1511 28.559 34.1435C28.7735 34.1359 28.9803 34.0613 29.1503 33.9302C29.3203 33.7992 29.4451 33.6182 29.507 33.4127C29.569 33.2071 29.5651 32.9874 29.4959 32.7842C29.4267 32.581 29.2956 32.4045 29.1211 32.2796C28.9465 32.1546 28.7372 32.0874 28.5226 32.0874L28.5231 32.0865Z" fill="url(#paint20_linear_689_1057)"/>
<path d="M22.1449 28.8418C22.0785 28.8418 22.0127 28.8549 21.9513 28.8804C21.8899 28.9058 21.8341 28.9431 21.7871 28.9901C21.7401 29.0372 21.7029 29.093 21.6775 29.1544C21.6521 29.2158 21.6391 29.2817 21.6392 29.3481V32.9329L20.5567 34.0154C20.3522 33.9344 20.1272 33.9212 19.9146 33.9776C19.702 34.034 19.5131 34.1571 19.3756 34.3287C19.2381 34.5004 19.1593 34.7116 19.1507 34.9314C19.1421 35.1511 19.2042 35.3679 19.3278 35.5498C19.4515 35.7317 19.6302 35.8691 19.8377 35.9419C20.0452 36.0148 20.2706 36.0192 20.4808 35.9545C20.6911 35.8897 20.875 35.7594 21.0056 35.5824C21.1362 35.4055 21.2067 35.1913 21.2067 34.9714C21.2066 34.9169 21.2022 34.8624 21.1936 34.8086L22.5016 33.5006C22.5963 33.4058 22.6496 33.2772 22.6495 33.1431V29.3481C22.6497 29.2141 22.5966 29.0855 22.502 28.9905C22.4074 28.8956 22.279 28.8421 22.1449 28.8418Z" fill="url(#paint21_linear_689_1057)"/>
</g>
<defs>
<filter id="filter0_f_689_1057" x="-36.3999" y="-70" width="139.742" height="139.742" filterUnits="userSpaceOnUse" color-interpolation-filters="sRGB">
<feFlood flood-opacity="0" result="BackgroundImageFix"/>
<feBlend mode="normal" in="SourceGraphic" in2="BackgroundImageFix" result="shape"/>
<feGaussianBlur stdDeviation="25" result="effect1_foregroundBlur_689_1057"/>
</filter>
<linearGradient id="paint0_linear_689_1057" x1="51.0968" y1="-3.09678" x2="-6.70968" y2="54.1935" gradientUnits="userSpaceOnUse">
<stop stop-color="#5A5F6D"/>
<stop offset="1" stop-color="#151820"/>
</linearGradient>
<linearGradient id="paint1_linear_689_1057" x1="23.6697" y1="19.2864" x2="23.6697" y2="28.488" gradientUnits="userSpaceOnUse">
<stop stop-color="#808FB7"/>
<stop offset="1" stop-color="#B6BFD7"/>
</linearGradient>
<linearGradient id="paint2_linear_689_1057" x1="22.0917" y1="14.4856" x2="22.0917" y2="18.8261" gradientUnits="userSpaceOnUse">
<stop stop-color="#808FB7"/>
<stop offset="1" stop-color="#B6BFD7"/>
</linearGradient>
<linearGradient id="paint3_linear_689_1057" x1="23.6726" y1="15.5347" x2="23.6726" y2="18.826" gradientUnits="userSpaceOnUse">
<stop stop-color="#808FB7"/>
<stop offset="1" stop-color="#B6BFD7"/>
</linearGradient>
<linearGradient id="paint4_linear_689_1057" x1="25.0831" y1="14.0479" x2="25.0831" y2="18.8261" gradientUnits="userSpaceOnUse">
<stop stop-color="#808FB7"/>
<stop offset="1" stop-color="#B6BFD7"/>
</linearGradient>
<linearGradient id="paint5_linear_689_1057" x1="25.1013" y1="28.8545" x2="25.1013" y2="33.1849" gradientUnits="userSpaceOnUse">
<stop stop-color="#808FB7"/>
<stop offset="1" stop-color="#B6BFD7"/>
</linearGradient>
<linearGradient id="paint6_linear_689_1057" x1="23.6416" y1="28.8545" x2="23.6416" y2="32.1461" gradientUnits="userSpaceOnUse">
<stop stop-color="#808FB7"/>
<stop offset="1" stop-color="#B6BFD7"/>
</linearGradient>
<linearGradient id="paint7_linear_689_1057" x1="20.5266" y1="28.8545" x2="20.5266" y2="32.8722" gradientUnits="userSpaceOnUse">
<stop stop-color="#808FB7"/>
<stop offset="1" stop-color="#B6BFD7"/>
</linearGradient>
<linearGradient id="paint8_linear_689_1057" x1="17.215" y1="20.3093" x2="17.215" y2="21.3208" gradientUnits="userSpaceOnUse">
<stop stop-color="#808FB7"/>
<stop offset="1" stop-color="#B6BFD7"/>
</linearGradient>
<linearGradient id="paint9_linear_689_1057" x1="16.6392" y1="26.3035" x2="16.6392" y2="27.315" gradientUnits="userSpaceOnUse">
<stop stop-color="#808FB7"/>
<stop offset="1" stop-color="#B6BFD7"/>
</linearGradient>
<linearGradient id="paint10_linear_689_1057" x1="16.3477" y1="23.3816" x2="16.3477" y2="24.3925" gradientUnits="userSpaceOnUse">
<stop stop-color="#808FB7"/>
<stop offset="1" stop-color="#B6BFD7"/>
</linearGradient>
<linearGradient id="paint11_linear_689_1057" x1="29.889" y1="26.0005" x2="29.889" y2="27.0114" gradientUnits="userSpaceOnUse">
<stop stop-color="#808FB7"/>
<stop offset="1" stop-color="#B6BFD7"/>
</linearGradient>
<linearGradient id="paint12_linear_689_1057" x1="30.4533" y1="21.4382" x2="30.4533" y2="22.4492" gradientUnits="userSpaceOnUse">
<stop stop-color="#808FB7"/>
<stop offset="1" stop-color="#B6BFD7"/>
</linearGradient>
<linearGradient id="paint13_linear_689_1057" x1="30.7446" y1="20.0063" x2="30.7446" y2="21.0173" gradientUnits="userSpaceOnUse">
<stop stop-color="#808FB7"/>
<stop offset="1" stop-color="#B6BFD7"/>
</linearGradient>
<linearGradient id="paint14_linear_689_1057" x1="15.3629" y1="18.9407" x2="15.3629" y2="22.874" gradientUnits="userSpaceOnUse">
<stop stop-color="#808FB7"/>
<stop offset="1" stop-color="#B6BFD7"/>
</linearGradient>
<linearGradient id="paint15_linear_689_1057" x1="15.2746" y1="24.8716" x2="15.2746" y2="27.8965" gradientUnits="userSpaceOnUse">
<stop stop-color="#808FB7"/>
<stop offset="1" stop-color="#B6BFD7"/>
</linearGradient>
<linearGradient id="paint16_linear_689_1057" x1="19.3117" y1="13.3567" x2="19.3117" y2="18.815" gradientUnits="userSpaceOnUse">
<stop stop-color="#808FB7"/>
<stop offset="1" stop-color="#B6BFD7"/>
</linearGradient>
<linearGradient id="paint17_linear_689_1057" x1="27.8351" y1="12" x2="27.8351" y2="18.8154" gradientUnits="userSpaceOnUse">
<stop stop-color="#808FB7"/>
<stop offset="1" stop-color="#B6BFD7"/>
</linearGradient>
<linearGradient id="paint18_linear_689_1057" x1="31.8587" y1="20.9153" x2="31.8587" y2="23.94" gradientUnits="userSpaceOnUse">
<stop stop-color="#808FB7"/>
<stop offset="1" stop-color="#B6BFD7"/>
</linearGradient>
<linearGradient id="paint19_linear_689_1057" x1="31.7497" y1="24.447" x2="31.7497" y2="28.2138" gradientUnits="userSpaceOnUse">
<stop stop-color="#808FB7"/>
<stop offset="1" stop-color="#B6BFD7"/>
</linearGradient>
<linearGradient id="paint20_linear_689_1057" x1="27.8192" y1="28.8545" x2="27.8192" y2="34.1441" gradientUnits="userSpaceOnUse">
<stop stop-color="#808FB7"/>
<stop offset="1" stop-color="#B6BFD7"/>
</linearGradient>
<linearGradient id="paint21_linear_689_1057" x1="20.8997" y1="28.8418" x2="20.8997" y2="36" gradientUnits="userSpaceOnUse">
<stop stop-color="#808FB7"/>
<stop offset="1" stop-color="#B6BFD7"/>
</linearGradient>
<clipPath id="clip0_689_1057">
<rect width="48" height="48" rx="24" fill="white"/>
</clipPath>
</defs>
</svg>
