<svg width="48" height="48" viewBox="0 0 48 48" fill="none" xmlns="http://www.w3.org/2000/svg">
<g clip-path="url(#clip0_689_1045)">
<rect x="0.5" y="0.5" width="47" height="47" rx="23.5" fill="#010510" stroke="url(#paint0_linear_689_1045)"/>
<g filter="url(#filter0_f_689_1045)">
<circle cx="33.4711" cy="-0.129032" r="19.871" fill="white" fill-opacity="0.4"/>
</g>
<g clip-path="url(#clip1_689_1045)">
<path d="M26.6426 33.0304H25.8498V29.9749C25.8498 29.8799 25.8121 29.7888 25.7452 29.7216C25.6782 29.6544 25.5874 29.6167 25.4926 29.6167H23.5069C23.4122 29.6167 23.3214 29.6544 23.2544 29.7216C23.1874 29.7888 23.1498 29.8799 23.1498 29.9749V33.0304H22.3569C22.2868 33.03 22.2181 33.0503 22.1595 33.0887C22.1008 33.1271 22.0546 33.182 22.0268 33.2466C21.999 33.3111 21.9908 33.3825 22.0031 33.4517C22.0155 33.5209 22.0478 33.5849 22.0962 33.6358L24.2391 35.8889C24.2725 35.9247 24.3128 35.9533 24.3577 35.9728C24.4025 35.9923 24.4509 36.0023 24.4998 36.0023C24.5487 36.0023 24.597 35.9923 24.6419 35.9728C24.6867 35.9533 24.7271 35.9247 24.7605 35.8889L26.9033 33.6358C26.9517 33.5849 26.9841 33.5209 26.9964 33.4517C27.0088 33.3825 27.0005 33.3111 26.9727 33.2466C26.9449 33.182 26.8988 33.1271 26.8401 33.0887C26.7814 33.0503 26.7127 33.03 26.6426 33.0304Z" fill="url(#paint1_linear_689_1045)"/>
<path d="M19.9215 31.1177H19.1429V28.7786C19.1429 28.6836 19.1053 28.5925 19.0383 28.5253C18.9713 28.4581 18.8805 28.4204 18.7858 28.4204H16.7965C16.7018 28.4204 16.6109 28.4581 16.544 28.5253C16.477 28.5925 16.4394 28.6836 16.4394 28.7786V31.1177H15.6572C15.5871 31.1173 15.5184 31.1376 15.4597 31.176C15.401 31.2144 15.3549 31.2693 15.3271 31.3339C15.2993 31.3984 15.2911 31.4697 15.3034 31.539C15.3158 31.6082 15.3481 31.6722 15.3965 31.7231L17.5394 33.9762C17.5727 34.0115 17.6129 34.0395 17.6574 34.0587C17.7019 34.0778 17.7498 34.0877 17.7983 34.0877C17.8467 34.0877 17.8947 34.0778 17.9392 34.0587C17.9837 34.0395 18.0238 34.0115 18.0572 33.9762L20.2001 31.7231C20.2482 31.6724 20.2805 31.6087 20.293 31.5398C20.3054 31.471 20.2975 31.3999 20.2701 31.3355C20.2428 31.2711 20.1972 31.2162 20.1391 31.1775C20.0809 31.1388 20.0127 31.118 19.9429 31.1177H19.9215Z" fill="url(#paint2_linear_689_1045)"/>
<path d="M25.5107 21.3708C25.3666 21.3656 25.2231 21.3912 25.0897 21.446C24.9563 21.5009 24.8361 21.5836 24.7371 21.6886C24.6381 21.7937 24.5625 21.9188 24.5155 22.0554C24.4684 22.1921 24.451 22.3373 24.4643 22.4812C24.456 22.624 24.4768 22.7669 24.5255 22.9013C24.5743 23.0357 24.6499 23.1586 24.7477 23.2627C24.8455 23.3667 24.9635 23.4496 25.0944 23.5062C25.2253 23.5628 25.3664 23.5921 25.5089 23.5921C25.6515 23.5921 25.7926 23.5628 25.9235 23.5062C26.0544 23.4496 26.1723 23.3667 26.2702 23.2627C26.368 23.1586 26.4436 23.0357 26.4923 22.9013C26.541 22.7669 26.5619 22.624 26.5536 22.4812C26.5668 22.3376 26.5494 22.1927 26.5026 22.0563C26.4558 21.9199 26.3805 21.795 26.2819 21.69C26.1833 21.585 26.0635 21.5022 25.9306 21.4472C25.7976 21.3921 25.6545 21.3661 25.5107 21.3708Z" fill="url(#paint3_linear_689_1045)"/>
<path d="M34.3678 19.594C34.3619 19.5925 34.3558 19.5925 34.3499 19.594C33.818 19.1609 33.1928 18.8581 32.5239 18.7095C31.8551 18.5609 31.1608 18.5706 30.4964 18.7379C30.3253 18.23 30.0039 17.7865 29.5752 17.4665C29.1464 17.1465 28.6305 16.9652 28.0964 16.9468C27.8137 16.0437 27.3042 15.2286 26.6168 14.5799C25.9295 13.9312 25.0874 13.4707 24.1714 13.2427C23.2554 13.0146 22.2963 13.0266 21.3863 13.2776C20.4763 13.5286 19.6459 14.0101 18.9749 14.6758C18.9692 14.6736 18.9628 14.6736 18.9571 14.6758C17.929 15.7106 17.3468 17.1087 17.3356 18.5695C16.1848 18.5795 15.085 19.0476 14.2783 19.8709C13.4715 20.6941 13.0239 21.8051 13.0339 22.9594C13.0438 24.1136 13.5105 25.2167 14.3313 26.0258C15.1521 26.835 16.2598 27.284 17.4106 27.274H31.5892C32.4774 27.2703 33.343 26.9933 34.0692 26.4805C34.7954 25.9677 35.3473 25.2438 35.6502 24.4064C35.9532 23.569 35.9926 22.6586 35.7633 21.798C35.534 20.9374 35.0469 20.1681 34.3678 19.594ZM22.2249 23.5844C22.4938 23.5881 22.7587 23.5201 22.9928 23.3874C23.0543 23.3553 23.1245 23.3435 23.1931 23.3538C23.2618 23.3641 23.3254 23.3959 23.3749 23.4447C23.4048 23.4733 23.4285 23.5078 23.4445 23.5461C23.4605 23.5843 23.4684 23.6254 23.4678 23.6668C23.47 23.7284 23.4547 23.7894 23.4237 23.8427C23.3927 23.8959 23.3473 23.9393 23.2928 23.9677C22.9588 24.1693 22.5754 24.2735 22.1856 24.2686C21.9505 24.2781 21.7161 24.238 21.4975 24.1508C21.2788 24.0636 21.0809 23.9312 20.9166 23.7623C20.7522 23.5935 20.6251 23.3918 20.5435 23.1705C20.4619 22.9491 20.4276 22.7131 20.4428 22.4776C20.4281 22.2422 20.4628 22.0064 20.5447 21.7853C20.6265 21.5642 20.7536 21.3628 20.9178 21.194C21.0821 21.0253 21.2797 20.8929 21.4981 20.8055C21.7165 20.7181 21.9507 20.6776 22.1856 20.6865C22.5769 20.6826 22.9615 20.7881 23.2964 20.991C23.3731 21.0309 23.4309 21.0997 23.457 21.1824C23.4831 21.265 23.4754 21.3547 23.4356 21.4316C23.3959 21.5086 23.3272 21.5665 23.2448 21.5927C23.1625 21.6189 23.0731 21.6112 22.9964 21.5713C22.7613 21.438 22.495 21.37 22.2249 21.3743C22.0795 21.3644 21.9337 21.3862 21.7975 21.4383C21.6613 21.4904 21.538 21.5715 21.4361 21.6761C21.3343 21.7807 21.2562 21.9062 21.2074 22.0439C21.1586 22.1817 21.1402 22.3284 21.1535 22.474C21.1387 22.6198 21.1557 22.7671 21.2034 22.9056C21.251 23.0441 21.3281 23.1706 21.4294 23.2763C21.5307 23.3819 21.6536 23.4642 21.7898 23.5174C21.9259 23.5706 22.0719 23.5935 22.2178 23.5844H22.2249ZM25.5178 24.2686C25.2828 24.277 25.0487 24.2361 24.8304 24.1485C24.6121 24.0609 24.4145 23.9286 24.2501 23.76C24.0857 23.5914 23.9582 23.3903 23.8758 23.1695C23.7934 22.9486 23.7578 22.713 23.7714 22.4776C23.7607 22.2411 23.7979 22.0049 23.8808 21.7833C23.9636 21.5617 24.0904 21.3592 24.2535 21.1881C24.4165 21.017 24.6125 20.8808 24.8295 20.7878C25.0465 20.6947 25.28 20.6467 25.516 20.6467C25.752 20.6467 25.9855 20.6947 26.2025 20.7878C26.4195 20.8808 26.6155 21.017 26.7785 21.1881C26.9416 21.3592 27.0684 21.5617 27.1512 21.7833C27.2341 22.0049 27.2713 22.2411 27.2606 22.4776C27.2737 22.7132 27.2376 22.9489 27.1548 23.1697C27.0719 23.3906 26.9441 23.5917 26.7794 23.7602C26.6148 23.9287 26.4169 24.061 26.1985 24.1485C25.98 24.236 25.7457 24.2769 25.5106 24.2686H25.5178ZM28.4285 23.9534C28.4479 23.9502 28.4678 23.9513 28.4868 23.9566C28.5057 23.9618 28.5233 23.9712 28.5383 23.984C28.5533 23.9968 28.5653 24.0127 28.5736 24.0306C28.5819 24.0485 28.5862 24.068 28.5862 24.0877C28.5862 24.1075 28.5819 24.127 28.5736 24.1449C28.5653 24.1628 28.5533 24.1787 28.5383 24.1915C28.5233 24.2042 28.5057 24.2136 28.4868 24.2189C28.4678 24.2242 28.4479 24.2252 28.4285 24.2221H27.7142C27.6938 24.2226 27.6736 24.2191 27.6545 24.2117C27.6355 24.2043 27.6182 24.1932 27.6035 24.1791C27.5895 24.165 27.5784 24.1482 27.5711 24.1297C27.5637 24.1113 27.5602 24.0915 27.5606 24.0716C27.5593 23.9961 27.5818 23.9222 27.6249 23.8603C27.7892 23.6238 28.1285 23.5021 28.2606 23.3409C28.2837 23.3094 28.2945 23.2707 28.2912 23.2318C28.288 23.193 28.2707 23.1566 28.2428 23.1295C28.1464 23.0435 27.8856 23.0865 27.7714 23.1295C27.7467 23.1408 27.7193 23.1445 27.6925 23.14C27.6658 23.1356 27.641 23.1232 27.6214 23.1044C27.6074 23.0897 27.5969 23.072 27.5909 23.0526C27.5848 23.0332 27.5833 23.0127 27.5864 22.9926C27.5895 22.9725 27.5971 22.9534 27.6088 22.9368C27.6204 22.9202 27.6357 22.9064 27.6535 22.8967C27.7558 22.8403 27.8691 22.8066 27.9856 22.7979C28.102 22.7893 28.219 22.8059 28.3285 22.8465C28.3832 22.8725 28.4316 22.9102 28.4702 22.9569C28.5089 23.0036 28.5368 23.0583 28.5522 23.117C28.5675 23.1757 28.5698 23.2371 28.5589 23.2968C28.548 23.3565 28.5242 23.4131 28.4892 23.4626C28.3204 23.6492 28.1241 23.8086 27.9071 23.9355L28.4285 23.9534Z" fill="url(#paint4_linear_689_1045)"/>
<path d="M33.343 31.1177H32.5608V28.7786C32.5608 28.6836 32.5232 28.5925 32.4562 28.5253C32.3893 28.4581 32.2984 28.4204 32.2037 28.4204H30.2144C30.1197 28.4204 30.0288 28.4581 29.9619 28.5253C29.8949 28.5925 29.8573 28.6836 29.8573 28.7786V31.1177H29.0787C29.0086 31.1178 28.9401 31.1385 28.8816 31.1774C28.8232 31.2162 28.7775 31.2715 28.7501 31.3362C28.7231 31.4007 28.7154 31.4716 28.7281 31.5404C28.7408 31.6091 28.7733 31.6726 28.8215 31.7231L30.9644 33.9762C30.9976 34.0112 31.0375 34.039 31.0817 34.0581C31.1259 34.0772 31.1734 34.0871 31.2215 34.0873C31.2703 34.0876 31.3185 34.0779 31.3634 34.0588C31.4082 34.0397 31.4487 34.0116 31.4823 33.9762L33.6251 31.7231C33.6735 31.6722 33.7059 31.6082 33.7182 31.539C33.7305 31.4697 33.7223 31.3984 33.6945 31.3339C33.6667 31.2693 33.6206 31.2144 33.5619 31.176C33.5032 31.1376 33.4345 31.1173 33.3644 31.1177H33.343Z" fill="url(#paint5_linear_689_1045)"/>
</g>
</g>
<defs>
<filter id="filter0_f_689_1045" x="-36.3999" y="-70" width="139.742" height="139.742" filterUnits="userSpaceOnUse" color-interpolation-filters="sRGB">
<feFlood flood-opacity="0" result="BackgroundImageFix"/>
<feBlend mode="normal" in="SourceGraphic" in2="BackgroundImageFix" result="shape"/>
<feGaussianBlur stdDeviation="25" result="effect1_foregroundBlur_689_1045"/>
</filter>
<linearGradient id="paint0_linear_689_1045" x1="51.0968" y1="-3.09678" x2="-6.70968" y2="54.1935" gradientUnits="userSpaceOnUse">
<stop stop-color="#5A5F6D"/>
<stop offset="1" stop-color="#151820"/>
</linearGradient>
<linearGradient id="paint1_linear_689_1045" x1="24.4998" y1="29.6167" x2="24.4998" y2="36.0023" gradientUnits="userSpaceOnUse">
<stop stop-color="#808FB7"/>
<stop offset="1" stop-color="#B6BFD7"/>
</linearGradient>
<linearGradient id="paint2_linear_689_1045" x1="17.7983" y1="28.4204" x2="17.7983" y2="34.0877" gradientUnits="userSpaceOnUse">
<stop stop-color="#808FB7"/>
<stop offset="1" stop-color="#B6BFD7"/>
</linearGradient>
<linearGradient id="paint3_linear_689_1045" x1="25.5089" y1="21.3701" x2="25.5089" y2="23.5921" gradientUnits="userSpaceOnUse">
<stop stop-color="#808FB7"/>
<stop offset="1" stop-color="#B6BFD7"/>
</linearGradient>
<linearGradient id="paint4_linear_689_1045" x1="24.4721" y1="13.0801" x2="24.4721" y2="27.2742" gradientUnits="userSpaceOnUse">
<stop stop-color="#808FB7"/>
<stop offset="1" stop-color="#B6BFD7"/>
</linearGradient>
<linearGradient id="paint5_linear_689_1045" x1="31.223" y1="28.4204" x2="31.223" y2="34.0873" gradientUnits="userSpaceOnUse">
<stop stop-color="#808FB7"/>
<stop offset="1" stop-color="#B6BFD7"/>
</linearGradient>
<clipPath id="clip0_689_1045">
<rect width="48" height="48" rx="24" fill="white"/>
</clipPath>
<clipPath id="clip1_689_1045">
<rect width="25" height="24" fill="white" transform="translate(12 12)"/>
</clipPath>
</defs>
</svg>
